STARTFONT 2.1
FONT -FontForge-Henny Penny-Book-R-Normal--8-80-72-72-P-45-ISO10646-1
SIZE 8 72 72
FONTBOUNDINGBOX 11 14 -1 -5
COMMENT "Generated by fontforge, http://fontforge.sourceforge.net"
COMMENT "Copyright (c) 2012, Brownfox (gayaneh.b@gmail.com), with Reserved Font Name "Henny Penny""
STARTPROPERTIES 39
FOUNDRY "FontForge"
FAMILY_NAME "Henny Penny"
WEIGHT_NAME "Book"
SLANT "R"
SETWIDTH_NAME "Normal"
ADD_STYLE_NAME ""
PIXEL_SIZE 8
POINT_SIZE 80
RESOLUTION_X 72
RESOLUTION_Y 72
SPACING "P"
AVERAGE_WIDTH 45
CHARSET_REGISTRY "ISO10646"
CHARSET_ENCODING "1"
FONTNAME_REGISTRY ""
CHARSET_COLLECTIONS "ISO10646-1"
FONT_NAME "HennyPenny-Regular"
FACE_NAME "Henny Penny"
COPYRIGHT "Copyright (c) 2012, Brownfox (gayaneh.b@gmail.com), with Reserved Font Name "Henny Penny""
FONT_VERSION "1.001"
FONT_ASCENT 6
FONT_DESCENT 2
UNDERLINE_POSITION -1
UNDERLINE_THICKNESS 1
X_HEIGHT 4
CAP_HEIGHT 5
RAW_ASCENT 799
RAW_DESCENT 200
NORM_SPACE 2
RELATIVE_WEIGHT 40
RELATIVE_SETWIDTH 50
SUPERSCRIPT_X 0
SUPERSCRIPT_Y 2
SUPERSCRIPT_SIZE 4
SUBSCRIPT_X 0
SUBSCRIPT_Y 0
SUBSCRIPT_SIZE 4
AVG_LOWERCASE_WIDTH 40
AVG_UPPERCASE_WIDTH 57
ENDPROPERTIES
CHARS 233
STARTCHAR space
ENCODING 32
SWIDTH 270 0
DWIDTH 2 0
BBX 1 1 0 0
BITMAP
00
ENDCHAR
STARTCHAR exclam
ENCODING 33
SWIDTH 249 0
DWIDTH 2 0
BBX 1 8 0 0
BITMAP
80
80
80
80
80
80
00
80
ENDCHAR
STARTCHAR quotedbl
ENCODING 34
SWIDTH 292 0
DWIDTH 2 0
BBX 2 3 0 4
BITMAP
C0
C0
80
ENDCHAR
STARTCHAR numbersign
ENCODING 35
SWIDTH 1030 0
DWIDTH 8 0
BBX 8 8 0 -2
BITMAP
1C
18
FF
30
7E
D0
60
20
ENDCHAR
STARTCHAR dollar
ENCODING 36
SWIDTH 799 0
DWIDTH 6 0
BBX 5 9 1 -2
BITMAP
20
78
70
60
30
D0
D0
F0
40
ENDCHAR
STARTCHAR percent
ENCODING 37
SWIDTH 789 0
DWIDTH 6 0
BBX 6 7 0 0
BITMAP
C8
B0
E0
20
58
94
98
ENDCHAR
STARTCHAR ampersand
ENCODING 38
SWIDTH 773 0
DWIDTH 6 0
BBX 6 8 0 -1
BITMAP
60
60
60
48
B8
A8
74
08
ENDCHAR
STARTCHAR quotesingle
ENCODING 39
SWIDTH 174 0
DWIDTH 1 0
BBX 1 3 0 3
BITMAP
80
80
80
ENDCHAR
STARTCHAR parenleft
ENCODING 40
SWIDTH 431 0
DWIDTH 3 0
BBX 3 11 0 -3
BITMAP
40
80
80
80
80
80
80
80
40
40
20
ENDCHAR
STARTCHAR parenright
ENCODING 41
SWIDTH 443 0
DWIDTH 4 0
BBX 3 8 0 -2
BITMAP
80
40
20
20
20
20
40
80
ENDCHAR
STARTCHAR asterisk
ENCODING 42
SWIDTH 490 0
DWIDTH 4 0
BBX 4 3 0 4
BITMAP
60
F0
60
ENDCHAR
STARTCHAR plus
ENCODING 43
SWIDTH 440 0
DWIDTH 4 0
BBX 3 5 1 0
BITMAP
40
40
E0
40
40
ENDCHAR
STARTCHAR comma
ENCODING 44
SWIDTH 251 0
DWIDTH 2 0
BBX 1 3 1 -2
BITMAP
80
80
80
ENDCHAR
STARTCHAR hyphen
ENCODING 45
SWIDTH 436 0
DWIDTH 3 0
BBX 3 1 0 2
BITMAP
E0
ENDCHAR
STARTCHAR period
ENCODING 46
SWIDTH 238 0
DWIDTH 2 0
BBX 1 1 0 0
BITMAP
80
ENDCHAR
STARTCHAR slash
ENCODING 47
SWIDTH 690 0
DWIDTH 6 0
BBX 5 7 0 0
BITMAP
08
10
10
20
40
80
80
ENDCHAR
STARTCHAR zero
ENCODING 48
SWIDTH 723 0
DWIDTH 6 0
BBX 6 6 0 1
BITMAP
78
8C
84
84
C4
78
ENDCHAR
STARTCHAR one
ENCODING 49
SWIDTH 505 0
DWIDTH 4 0
BBX 4 8 0 -1
BITMAP
40
40
C0
20
20
20
70
80
ENDCHAR
STARTCHAR two
ENCODING 50
SWIDTH 534 0
DWIDTH 4 0
BBX 5 7 0 -1
BITMAP
70
90
90
20
40
48
30
ENDCHAR
STARTCHAR three
ENCODING 51
SWIDTH 511 0
DWIDTH 4 0
BBX 4 6 0 -1
BITMAP
E0
C0
60
90
90
60
ENDCHAR
STARTCHAR four
ENCODING 52
SWIDTH 712 0
DWIDTH 6 0
BBX 6 7 0 0
BITMAP
30
60
90
90
78
10
1C
ENDCHAR
STARTCHAR five
ENCODING 53
SWIDTH 757 0
DWIDTH 6 0
BBX 6 7 0 -1
BITMAP
14
2C
20
98
88
88
70
ENDCHAR
STARTCHAR six
ENCODING 54
SWIDTH 598 0
DWIDTH 5 0
BBX 5 6 0 0
BITMAP
70
C8
F0
88
88
70
ENDCHAR
STARTCHAR seven
ENCODING 55
SWIDTH 507 0
DWIDTH 4 0
BBX 4 6 0 0
BITMAP
F0
A0
20
40
40
40
ENDCHAR
STARTCHAR eight
ENCODING 56
SWIDTH 476 0
DWIDTH 4 0
BBX 4 7 0 0
BITMAP
E0
A0
E0
60
90
90
E0
ENDCHAR
STARTCHAR nine
ENCODING 57
SWIDTH 601 0
DWIDTH 5 0
BBX 4 6 0 0
BITMAP
60
90
90
70
10
E0
ENDCHAR
STARTCHAR colon
ENCODING 58
SWIDTH 246 0
DWIDTH 2 0
BBX 1 4 1 0
BITMAP
80
00
00
80
ENDCHAR
STARTCHAR semicolon
ENCODING 59
SWIDTH 266 0
DWIDTH 2 0
BBX 1 5 0 -1
BITMAP
80
00
00
80
80
ENDCHAR
STARTCHAR less
ENCODING 60
SWIDTH 522 0
DWIDTH 4 0
BBX 4 3 0 1
BITMAP
30
C0
70
ENDCHAR
STARTCHAR equal
ENCODING 61
SWIDTH 655 0
DWIDTH 5 0
BBX 5 2 0 2
BITMAP
38
F0
ENDCHAR
STARTCHAR greater
ENCODING 62
SWIDTH 533 0
DWIDTH 4 0
BBX 4 4 0 0
BITMAP
C0
30
20
C0
ENDCHAR
STARTCHAR question
ENCODING 63
SWIDTH 564 0
DWIDTH 5 0
BBX 4 8 0 -1
BITMAP
70
90
D0
20
C0
40
00
40
ENDCHAR
STARTCHAR at
ENCODING 64
SWIDTH 898 0
DWIDTH 7 0
BBX 6 8 0 -2
BITMAP
38
4C
BC
CC
CC
FC
48
38
ENDCHAR
STARTCHAR A
ENCODING 65
SWIDTH 784 0
DWIDTH 6 0
BBX 6 7 0 0
BITMAP
70
30
50
28
58
CC
0C
ENDCHAR
STARTCHAR B
ENCODING 66
SWIDTH 685 0
DWIDTH 5 0
BBX 5 8 0 -1
BITMAP
F0
50
60
78
48
48
70
80
ENDCHAR
STARTCHAR C
ENCODING 67
SWIDTH 742 0
DWIDTH 6 0
BBX 6 7 0 -1
BITMAP
08
78
C8
84
84
C4
78
ENDCHAR
STARTCHAR D
ENCODING 68
SWIDTH 726 0
DWIDTH 6 0
BBX 5 7 0 -2
BITMAP
F8
48
48
48
70
80
80
ENDCHAR
STARTCHAR E
ENCODING 69
SWIDTH 557 0
DWIDTH 4 0
BBX 4 7 0 -1
BITMAP
B0
40
60
60
60
50
F0
ENDCHAR
STARTCHAR F
ENCODING 70
SWIDTH 533 0
DWIDTH 4 0
BBX 4 7 0 0
BITMAP
30
D0
70
60
60
40
E0
ENDCHAR
STARTCHAR G
ENCODING 71
SWIDTH 750 0
DWIDTH 6 0
BBX 6 6 0 0
BITMAP
04
74
C8
88
9C
78
ENDCHAR
STARTCHAR H
ENCODING 72
SWIDTH 743 0
DWIDTH 6 0
BBX 6 8 0 -1
BITMAP
E0
5C
48
48
78
48
5C
C0
ENDCHAR
STARTCHAR I
ENCODING 73
SWIDTH 438 0
DWIDTH 4 0
BBX 5 9 -1 -2
BITMAP
78
20
20
20
20
20
20
70
80
ENDCHAR
STARTCHAR J
ENCODING 74
SWIDTH 628 0
DWIDTH 5 0
BBX 5 10 0 -2
BITMAP
08
38
10
10
10
10
10
20
E0
C0
ENDCHAR
STARTCHAR K
ENCODING 75
SWIDTH 866 0
DWIDTH 7 0
BBX 7 7 0 0
BITMAP
DC
50
60
60
50
5A
EE
ENDCHAR
STARTCHAR L
ENCODING 76
SWIDTH 660 0
DWIDTH 5 0
BBX 5 5 0 0
BITMAP
E0
40
40
50
F8
ENDCHAR
STARTCHAR M
ENCODING 77
SWIDTH 1089 0
DWIDTH 9 0
BBX 9 7 0 -1
BITMAP
0300
6200
5E00
4A00
5100
4380
C000
ENDCHAR
STARTCHAR N
ENCODING 78
SWIDTH 799 0
DWIDTH 6 0
BBX 6 7 0 -2
BITMAP
CC
68
B8
98
88
80
C0
ENDCHAR
STARTCHAR O
ENCODING 79
SWIDTH 747 0
DWIDTH 6 0
BBX 6 6 0 0
BITMAP
78
8C
84
84
CC
78
ENDCHAR
STARTCHAR P
ENCODING 80
SWIDTH 623 0
DWIDTH 5 0
BBX 5 7 0 -1
BITMAP
F8
28
38
20
20
20
70
ENDCHAR
STARTCHAR Q
ENCODING 81
SWIDTH 804 0
DWIDTH 6 0
BBX 9 11 0 -4
BITMAP
7800
8C00
8400
8400
9C00
E800
7C00
0400
0400
0680
0300
ENDCHAR
STARTCHAR R
ENCODING 82
SWIDTH 869 0
DWIDTH 7 0
BBX 7 6 0 0
BITMAP
F0
50
70
60
52
EC
ENDCHAR
STARTCHAR S
ENCODING 83
SWIDTH 517 0
DWIDTH 4 0
BBX 4 7 0 -1
BITMAP
70
50
40
A0
90
90
F0
ENDCHAR
STARTCHAR T
ENCODING 84
SWIDTH 659 0
DWIDTH 5 0
BBX 5 8 1 -1
BITMAP
F8
A8
A0
20
20
20
70
80
ENDCHAR
STARTCHAR U
ENCODING 85
SWIDTH 690 0
DWIDTH 6 0
BBX 6 6 0 0
BITMAP
20
FC
48
48
48
30
ENDCHAR
STARTCHAR V
ENCODING 86
SWIDTH 798 0
DWIDTH 6 0
BBX 7 6 0 0
BITMAP
E2
2C
24
18
18
10
ENDCHAR
STARTCHAR W
ENCODING 87
SWIDTH 1120 0
DWIDTH 9 0
BBX 10 6 0 -1
BITMAP
41C0
C100
4900
3600
2600
0400
ENDCHAR
STARTCHAR X
ENCODING 88
SWIDTH 868 0
DWIDTH 7 0
BBX 7 7 0 -1
BITMAP
F0
26
18
28
28
EC
22
ENDCHAR
STARTCHAR Y
ENCODING 89
SWIDTH 796 0
DWIDTH 6 0
BBX 7 7 0 -1
BITMAP
E6
68
30
10
10
10
38
ENDCHAR
STARTCHAR Z
ENCODING 90
SWIDTH 627 0
DWIDTH 5 0
BBX 5 7 0 -1
BITMAP
F0
A0
20
48
48
78
80
ENDCHAR
STARTCHAR bracketleft
ENCODING 91
SWIDTH 344 0
DWIDTH 3 0
BBX 3 9 0 -2
BITMAP
40
A0
80
80
80
80
80
80
C0
ENDCHAR
STARTCHAR backslash
ENCODING 92
SWIDTH 347 0
DWIDTH 3 0
BBX 3 9 0 -1
BITMAP
80
80
80
80
80
40
40
40
20
ENDCHAR
STARTCHAR bracketright
ENCODING 93
SWIDTH 334 0
DWIDTH 3 0
BBX 2 7 0 -2
BITMAP
C0
40
40
40
40
40
80
ENDCHAR
STARTCHAR asciicircum
ENCODING 94
SWIDTH 658 0
DWIDTH 5 0
BBX 5 2 0 4
BITMAP
20
D8
ENDCHAR
STARTCHAR underscore
ENCODING 95
SWIDTH 678 0
DWIDTH 5 0
BBX 5 1 0 -2
BITMAP
F8
ENDCHAR
STARTCHAR grave
ENCODING 96
SWIDTH 278 0
DWIDTH 2 0
BBX 1 2 0 6
BITMAP
80
80
ENDCHAR
STARTCHAR a
ENCODING 97
SWIDTH 527 0
DWIDTH 4 0
BBX 4 6 0 -1
BITMAP
60
A0
60
E0
D0
10
ENDCHAR
STARTCHAR b
ENCODING 98
SWIDTH 582 0
DWIDTH 5 0
BBX 5 10 0 -1
BITMAP
80
80
40
40
40
70
48
48
70
80
ENDCHAR
STARTCHAR c
ENCODING 99
SWIDTH 437 0
DWIDTH 4 0
BBX 3 4 0 1
BITMAP
60
A0
A0
E0
ENDCHAR
STARTCHAR d
ENCODING 100
SWIDTH 523 0
DWIDTH 4 0
BBX 5 8 0 0
BITMAP
30
10
10
10
10
70
90
78
ENDCHAR
STARTCHAR e
ENCODING 101
SWIDTH 434 0
DWIDTH 3 0
BBX 3 4 0 0
BITMAP
60
E0
A0
60
ENDCHAR
STARTCHAR f
ENCODING 102
SWIDTH 299 0
DWIDTH 2 0
BBX 4 10 0 -1
BITMAP
30
50
70
40
E0
40
40
40
40
E0
ENDCHAR
STARTCHAR g
ENCODING 103
SWIDTH 567 0
DWIDTH 5 0
BBX 4 8 0 -3
BITMAP
10
E0
A0
E0
60
90
90
E0
ENDCHAR
STARTCHAR h
ENCODING 104
SWIDTH 566 0
DWIDTH 5 0
BBX 5 8 0 0
BITMAP
C0
40
40
40
70
50
50
D8
ENDCHAR
STARTCHAR i
ENCODING 105
SWIDTH 301 0
DWIDTH 2 0
BBX 3 6 0 1
BITMAP
40
00
C0
40
40
E0
ENDCHAR
STARTCHAR j
ENCODING 106
SWIDTH 367 0
DWIDTH 3 0
BBX 4 9 -1 -4
BITMAP
20
60
30
10
10
10
D0
A0
E0
ENDCHAR
STARTCHAR k
ENCODING 107
SWIDTH 567 0
DWIDTH 5 0
BBX 5 9 0 -1
BITMAP
C0
40
40
40
70
60
70
58
E0
ENDCHAR
STARTCHAR l
ENCODING 108
SWIDTH 354 0
DWIDTH 3 0
BBX 4 7 -1 0
BITMAP
40
C0
20
20
20
20
70
ENDCHAR
STARTCHAR m
ENCODING 109
SWIDTH 708 0
DWIDTH 6 0
BBX 6 3 0 1
BITMAP
F8
78
CC
ENDCHAR
STARTCHAR n
ENCODING 110
SWIDTH 584 0
DWIDTH 5 0
BBX 4 6 1 -1
BITMAP
80
B0
D0
90
F0
10
ENDCHAR
STARTCHAR o
ENCODING 111
SWIDTH 503 0
DWIDTH 4 0
BBX 4 4 0 1
BITMAP
60
90
90
60
ENDCHAR
STARTCHAR p
ENCODING 112
SWIDTH 509 0
DWIDTH 4 0
BBX 4 7 0 -3
BITMAP
C0
70
50
70
40
40
E0
ENDCHAR
STARTCHAR q
ENCODING 113
SWIDTH 505 0
DWIDTH 4 0
BBX 4 8 1 -4
BITMAP
E0
A0
E0
20
20
20
60
30
ENDCHAR
STARTCHAR r
ENCODING 114
SWIDTH 414 0
DWIDTH 3 0
BBX 4 5 0 0
BITMAP
B0
50
40
40
E0
ENDCHAR
STARTCHAR s
ENCODING 115
SWIDTH 482 0
DWIDTH 4 0
BBX 4 6 0 -1
BITMAP
60
60
40
A0
90
70
ENDCHAR
STARTCHAR t
ENCODING 116
SWIDTH 434 0
DWIDTH 3 0
BBX 4 6 0 0
BITMAP
20
20
60
C0
50
70
ENDCHAR
STARTCHAR u
ENCODING 117
SWIDTH 744 0
DWIDTH 6 0
BBX 6 4 0 0
BITMAP
D8
48
4C
30
ENDCHAR
STARTCHAR v
ENCODING 118
SWIDTH 600 0
DWIDTH 5 0
BBX 5 5 0 0
BITMAP
40
D8
50
30
20
ENDCHAR
STARTCHAR w
ENCODING 119
SWIDTH 745 0
DWIDTH 6 0
BBX 6 5 0 0
BITMAP
4C
D8
58
68
40
ENDCHAR
STARTCHAR x
ENCODING 120
SWIDTH 548 0
DWIDTH 4 0
BBX 5 4 0 1
BITMAP
F8
60
20
F0
ENDCHAR
STARTCHAR y
ENCODING 121
SWIDTH 659 0
DWIDTH 5 0
BBX 5 9 0 -4
BITMAP
20
D8
48
48
38
08
10
70
60
ENDCHAR
STARTCHAR z
ENCODING 122
SWIDTH 460 0
DWIDTH 4 0
BBX 4 4 0 0
BITMAP
E0
C0
40
F0
ENDCHAR
STARTCHAR braceleft
ENCODING 123
SWIDTH 460 0
DWIDTH 4 0
BBX 3 10 0 -2
BITMAP
60
40
40
40
C0
80
40
40
40
60
ENDCHAR
STARTCHAR bar
ENCODING 124
SWIDTH 368 0
DWIDTH 3 0
BBX 1 9 1 -2
BITMAP
80
80
80
80
80
80
80
80
80
ENDCHAR
STARTCHAR braceright
ENCODING 125
SWIDTH 476 0
DWIDTH 4 0
BBX 4 9 0 -2
BITMAP
C0
20
20
30
20
10
10
10
20
ENDCHAR
STARTCHAR asciitilde
ENCODING 126
SWIDTH 733 0
DWIDTH 6 0
BBX 5 1 0 1
BITMAP
F8
ENDCHAR
STARTCHAR nonbreakingspace
ENCODING 160
SWIDTH 270 0
DWIDTH 2 0
BBX 1 1 0 0
BITMAP
00
ENDCHAR
STARTCHAR exclamdown
ENCODING 161
SWIDTH 247 0
DWIDTH 2 0
BBX 1 9 0 -1
BITMAP
80
00
00
80
80
80
80
80
80
ENDCHAR
STARTCHAR cent
ENCODING 162
SWIDTH 799 0
DWIDTH 6 0
BBX 4 7 1 -1
BITMAP
80
60
D0
C0
D0
60
20
ENDCHAR
STARTCHAR sterling
ENCODING 163
SWIDTH 799 0
DWIDTH 6 0
BBX 5 7 1 -1
BITMAP
70
50
40
60
E0
28
F0
ENDCHAR
STARTCHAR currency
ENCODING 164
SWIDTH 732 0
DWIDTH 6 0
BBX 5 6 1 0
BITMAP
30
F0
90
90
F0
88
ENDCHAR
STARTCHAR yen
ENCODING 165
SWIDTH 799 0
DWIDTH 6 0
BBX 6 8 0 -2
BITMAP
E4
2C
30
10
3C
18
38
40
ENDCHAR
STARTCHAR brokenbar
ENCODING 166
SWIDTH 341 0
DWIDTH 3 0
BBX 1 9 1 -2
BITMAP
80
80
80
00
80
80
80
80
80
ENDCHAR
STARTCHAR section
ENCODING 167
SWIDTH 546 0
DWIDTH 4 0
BBX 4 9 0 -2
BITMAP
60
90
60
A0
90
60
20
20
60
ENDCHAR
STARTCHAR dieresis
ENCODING 168
SWIDTH 393 0
DWIDTH 3 0
BBX 2 1 1 5
BITMAP
C0
ENDCHAR
STARTCHAR copyright
ENCODING 169
SWIDTH 1023 0
DWIDTH 8 0
BBX 7 7 0 -1
BITMAP
3C
4E
BA
AA
B2
C4
78
ENDCHAR
STARTCHAR ordfeminine
ENCODING 170
SWIDTH 558 0
DWIDTH 4 0
BBX 4 4 0 3
BITMAP
C0
C0
D0
E0
ENDCHAR
STARTCHAR guillemotleft
ENCODING 171
SWIDTH 608 0
DWIDTH 5 0
BBX 4 7 0 -2
BITMAP
10
30
50
D0
50
30
30
ENDCHAR
STARTCHAR logicalnot
ENCODING 172
SWIDTH 616 0
DWIDTH 5 0
BBX 5 2 -1 2
BITMAP
F8
08
ENDCHAR
STARTCHAR uni00AD
ENCODING 173
SWIDTH 436 0
DWIDTH 3 0
BBX 3 1 0 2
BITMAP
E0
ENDCHAR
STARTCHAR registered
ENCODING 174
SWIDTH 1048 0
DWIDTH 8 0
BBX 8 7 0 -2
BITMAP
3C
7E
95
9B
BD
42
3C
ENDCHAR
STARTCHAR macron
ENCODING 175
SWIDTH 382 0
DWIDTH 3 0
BBX 3 1 0 6
BITMAP
E0
ENDCHAR
STARTCHAR degree
ENCODING 176
SWIDTH 346 0
DWIDTH 3 0
BBX 2 2 0 6
BITMAP
C0
C0
ENDCHAR
STARTCHAR plusminus
ENCODING 177
SWIDTH 580 0
DWIDTH 5 0
BBX 5 3 0 1
BITMAP
20
F8
E0
ENDCHAR
STARTCHAR twosuperior
ENCODING 178
SWIDTH 365 0
DWIDTH 3 0
BBX 3 5 0 2
BITMAP
40
A0
40
80
60
ENDCHAR
STARTCHAR threesuperior
ENCODING 179
SWIDTH 371 0
DWIDTH 3 0
BBX 3 4 0 3
BITMAP
C0
C0
A0
40
ENDCHAR
STARTCHAR acute
ENCODING 180
SWIDTH 234 0
DWIDTH 2 0
BBX 1 2 0 6
BITMAP
80
80
ENDCHAR
STARTCHAR mu
ENCODING 181
SWIDTH 634 0
DWIDTH 5 0
BBX 5 7 0 -3
BITMAP
A0
A0
98
F8
80
80
80
ENDCHAR
STARTCHAR paragraph
ENCODING 182
SWIDTH 707 0
DWIDTH 6 0
BBX 6 10 0 -3
BITMAP
04
78
E8
E8
28
28
28
28
2C
60
ENDCHAR
STARTCHAR periodcentered
ENCODING 183
SWIDTH 238 0
DWIDTH 2 0
BBX 1 1 0 3
BITMAP
80
ENDCHAR
STARTCHAR cedilla
ENCODING 184
SWIDTH 332 0
DWIDTH 3 0
BBX 2 3 0 -2
BITMAP
80
40
C0
ENDCHAR
STARTCHAR onesuperior
ENCODING 185
SWIDTH 336 0
DWIDTH 3 0
BBX 2 4 0 3
BITMAP
40
C0
40
C0
ENDCHAR
STARTCHAR ordmasculine
ENCODING 186
SWIDTH 503 0
DWIDTH 4 0
BBX 4 4 0 2
BITMAP
E0
A0
B0
60
ENDCHAR
STARTCHAR guillemotright
ENCODING 187
SWIDTH 778 0
DWIDTH 6 0
BBX 6 7 0 -2
BITMAP
20
90
68
3C
50
A0
20
ENDCHAR
STARTCHAR onequarter
ENCODING 188
SWIDTH 876 0
DWIDTH 7 0
BBX 7 8 0 -1
BITMAP
4C
C8
50
E4
24
5E
8E
06
ENDCHAR
STARTCHAR onehalf
ENCODING 189
SWIDTH 762 0
DWIDTH 6 0
BBX 6 8 0 -1
BITMAP
4C
C8
50
EC
34
44
98
0C
ENDCHAR
STARTCHAR threequarters
ENCODING 190
SWIDTH 922 0
DWIDTH 7 0
BBX 8 8 0 -1
BITMAP
C4
C8
A8
54
24
4E
4E
07
ENDCHAR
STARTCHAR questiondown
ENCODING 191
SWIDTH 571 0
DWIDTH 5 0
BBX 5 8 0 -2
BITMAP
20
00
40
60
40
98
C8
70
ENDCHAR
STARTCHAR Agrave
ENCODING 192
SWIDTH 784 0
DWIDTH 6 0
BBX 6 9 0 0
BITMAP
80
40
70
30
50
28
58
CC
0C
ENDCHAR
STARTCHAR Aacute
ENCODING 193
SWIDTH 784 0
DWIDTH 6 0
BBX 6 9 0 0
BITMAP
20
20
70
30
50
28
58
CC
0C
ENDCHAR
STARTCHAR Acircumflex
ENCODING 194
SWIDTH 784 0
DWIDTH 6 0
BBX 6 8 0 0
BITMAP
10
78
30
50
28
58
CC
0C
ENDCHAR
STARTCHAR Atilde
ENCODING 195
SWIDTH 784 0
DWIDTH 6 0
BBX 6 8 0 0
BITMAP
30
70
30
50
28
58
CC
0C
ENDCHAR
STARTCHAR Adieresis
ENCODING 196
SWIDTH 784 0
DWIDTH 6 0
BBX 6 8 0 0
BITMAP
60
70
30
50
28
58
CC
0C
ENDCHAR
STARTCHAR Aring
ENCODING 197
SWIDTH 784 0
DWIDTH 6 0
BBX 6 9 0 0
BITMAP
30
30
70
30
50
28
58
CC
0C
ENDCHAR
STARTCHAR AE
ENCODING 198
SWIDTH 1172 0
DWIDTH 9 0
BBX 9 8 0 -1
BITMAP
0300
1F00
1400
1600
1680
1D80
2600
E800
ENDCHAR
STARTCHAR Ccedilla
ENCODING 199
SWIDTH 742 0
DWIDTH 6 0
BBX 6 9 0 -3
BITMAP
08
78
C8
84
84
C4
78
10
30
ENDCHAR
STARTCHAR Egrave
ENCODING 200
SWIDTH 557 0
DWIDTH 4 0
BBX 4 10 0 -1
BITMAP
80
80
00
B0
40
60
60
60
50
F0
ENDCHAR
STARTCHAR Eacute
ENCODING 201
SWIDTH 557 0
DWIDTH 4 0
BBX 4 10 0 -1
BITMAP
20
40
00
B0
40
60
60
60
50
F0
ENDCHAR
STARTCHAR Ecircumflex
ENCODING 202
SWIDTH 557 0
DWIDTH 4 0
BBX 4 10 0 -1
BITMAP
20
D0
00
B0
40
60
60
60
50
F0
ENDCHAR
STARTCHAR Edieresis
ENCODING 203
SWIDTH 557 0
DWIDTH 4 0
BBX 4 9 0 -1
BITMAP
60
00
B0
40
60
60
60
50
F0
ENDCHAR
STARTCHAR Igrave
ENCODING 204
SWIDTH 438 0
DWIDTH 4 0
BBX 5 11 -1 -2
BITMAP
40
40
78
20
20
20
20
20
20
70
80
ENDCHAR
STARTCHAR Iacute
ENCODING 205
SWIDTH 438 0
DWIDTH 4 0
BBX 5 11 -1 -2
BITMAP
10
20
78
20
20
20
20
20
20
70
80
ENDCHAR
STARTCHAR Icircumflex
ENCODING 206
SWIDTH 438 0
DWIDTH 4 0
BBX 5 11 -1 -2
BITMAP
10
68
78
20
20
20
20
20
20
70
80
ENDCHAR
STARTCHAR Idieresis
ENCODING 207
SWIDTH 438 0
DWIDTH 4 0
BBX 5 10 -1 -2
BITMAP
60
78
20
20
20
20
20
20
70
80
ENDCHAR
STARTCHAR Eth
ENCODING 208
SWIDTH 730 0
DWIDTH 6 0
BBX 6 7 0 -2
BITMAP
F8
48
4C
EC
48
70
80
ENDCHAR
STARTCHAR Ntilde
ENCODING 209
SWIDTH 799 0
DWIDTH 6 0
BBX 6 10 0 -2
BITMAP
18
00
00
CC
68
B8
98
88
80
C0
ENDCHAR
STARTCHAR Ograve
ENCODING 210
SWIDTH 747 0
DWIDTH 6 0
BBX 6 9 0 0
BITMAP
40
40
00
78
8C
84
84
CC
78
ENDCHAR
STARTCHAR Oacute
ENCODING 211
SWIDTH 747 0
DWIDTH 6 0
BBX 6 9 0 0
BITMAP
20
20
00
78
8C
84
84
CC
78
ENDCHAR
STARTCHAR Ocircumflex
ENCODING 212
SWIDTH 747 0
DWIDTH 6 0
BBX 6 8 0 0
BITMAP
20
50
78
8C
84
84
CC
78
ENDCHAR
STARTCHAR Otilde
ENCODING 213
SWIDTH 747 0
DWIDTH 6 0
BBX 6 8 0 0
BITMAP
30
00
78
8C
84
84
CC
78
ENDCHAR
STARTCHAR Odieresis
ENCODING 214
SWIDTH 747 0
DWIDTH 6 0
BBX 6 8 0 0
BITMAP
60
00
78
8C
84
84
CC
78
ENDCHAR
STARTCHAR multiply
ENCODING 215
SWIDTH 541 0
DWIDTH 4 0
BBX 4 5 0 0
BITMAP
10
A0
40
70
80
ENDCHAR
STARTCHAR Oslash
ENCODING 216
SWIDTH 747 0
DWIDTH 6 0
BBX 6 8 0 -1
BITMAP
04
78
8C
94
A4
C4
78
80
ENDCHAR
STARTCHAR Ugrave
ENCODING 217
SWIDTH 690 0
DWIDTH 6 0
BBX 6 9 0 0
BITMAP
40
20
00
20
FC
48
48
48
30
ENDCHAR
STARTCHAR Uacute
ENCODING 218
SWIDTH 690 0
DWIDTH 6 0
BBX 6 8 0 0
BITMAP
08
10
20
FC
48
48
48
30
ENDCHAR
STARTCHAR Ucircumflex
ENCODING 219
SWIDTH 690 0
DWIDTH 6 0
BBX 6 8 0 0
BITMAP
10
28
20
FC
48
48
48
30
ENDCHAR
STARTCHAR Udieresis
ENCODING 220
SWIDTH 690 0
DWIDTH 6 0
BBX 6 8 0 0
BITMAP
30
00
20
FC
48
48
48
30
ENDCHAR
STARTCHAR Yacute
ENCODING 221
SWIDTH 796 0
DWIDTH 6 0
BBX 7 10 0 -1
BITMAP
08
10
00
E6
68
30
10
10
10
38
ENDCHAR
STARTCHAR Thorn
ENCODING 222
SWIDTH 479 0
DWIDTH 4 0
BBX 4 8 0 0
BITMAP
E0
40
70
50
70
40
40
C0
ENDCHAR
STARTCHAR germandbls
ENCODING 223
SWIDTH 591 0
DWIDTH 5 0
BBX 5 9 0 -1
BITMAP
E0
A0
C0
B0
D0
88
48
70
80
ENDCHAR
STARTCHAR agrave
ENCODING 224
SWIDTH 527 0
DWIDTH 4 0
BBX 4 8 0 -1
BITMAP
80
80
60
A0
60
E0
D0
10
ENDCHAR
STARTCHAR aacute
ENCODING 225
SWIDTH 527 0
DWIDTH 4 0
BBX 4 8 0 -1
BITMAP
40
40
60
A0
60
E0
D0
10
ENDCHAR
STARTCHAR acircumflex
ENCODING 226
SWIDTH 527 0
DWIDTH 4 0
BBX 4 8 0 -1
BITMAP
20
E0
60
A0
60
E0
D0
10
ENDCHAR
STARTCHAR atilde
ENCODING 227
SWIDTH 527 0
DWIDTH 4 0
BBX 4 7 0 -1
BITMAP
60
60
A0
60
E0
D0
10
ENDCHAR
STARTCHAR adieresis
ENCODING 228
SWIDTH 527 0
DWIDTH 4 0
BBX 4 7 0 -1
BITMAP
60
60
A0
60
E0
D0
10
ENDCHAR
STARTCHAR aring
ENCODING 229
SWIDTH 527 0
DWIDTH 4 0
BBX 4 9 0 -1
BITMAP
60
40
00
60
A0
60
E0
D0
10
ENDCHAR
STARTCHAR ae
ENCODING 230
SWIDTH 700 0
DWIDTH 6 0
BBX 5 6 0 -1
BITMAP
18
E8
B8
60
A8
F8
ENDCHAR
STARTCHAR ccedilla
ENCODING 231
SWIDTH 437 0
DWIDTH 4 0
BBX 3 6 0 -1
BITMAP
60
A0
A0
E0
C0
60
ENDCHAR
STARTCHAR egrave
ENCODING 232
SWIDTH 434 0
DWIDTH 3 0
BBX 3 7 0 0
BITMAP
80
80
00
60
E0
A0
60
ENDCHAR
STARTCHAR eacute
ENCODING 233
SWIDTH 434 0
DWIDTH 3 0
BBX 3 7 0 0
BITMAP
40
40
00
60
E0
A0
60
ENDCHAR
STARTCHAR ecircumflex
ENCODING 234
SWIDTH 434 0
DWIDTH 3 0
BBX 3 7 0 0
BITMAP
40
A0
00
60
E0
A0
60
ENDCHAR
STARTCHAR edieresis
ENCODING 235
SWIDTH 434 0
DWIDTH 3 0
BBX 3 6 0 0
BITMAP
60
00
60
E0
A0
60
ENDCHAR
STARTCHAR igrave
ENCODING 236
SWIDTH 301 0
DWIDTH 2 0
BBX 4 7 -1 1
BITMAP
80
80
00
60
20
20
70
ENDCHAR
STARTCHAR iacute
ENCODING 237
SWIDTH 301 0
DWIDTH 2 0
BBX 3 6 0 1
BITMAP
C0
80
C0
40
40
E0
ENDCHAR
STARTCHAR icircumflex
ENCODING 238
SWIDTH 301 0
DWIDTH 2 0
BBX 3 6 0 1
BITMAP
40
A0
C0
40
40
E0
ENDCHAR
STARTCHAR idieresis
ENCODING 239
SWIDTH 301 0
DWIDTH 2 0
BBX 3 5 0 1
BITMAP
60
C0
40
40
E0
ENDCHAR
STARTCHAR eth
ENCODING 240
SWIDTH 476 0
DWIDTH 4 0
BBX 5 8 -1 -1
BITMAP
10
60
B0
10
38
48
48
30
ENDCHAR
STARTCHAR ntilde
ENCODING 241
SWIDTH 584 0
DWIDTH 5 0
BBX 4 7 1 -1
BITMAP
60
80
B0
D0
90
F0
10
ENDCHAR
STARTCHAR ograve
ENCODING 242
SWIDTH 400 0
DWIDTH 3 0
BBX 5 7 0 1
BITMAP
08
88
88
08
F0
A0
E0
ENDCHAR
STARTCHAR oacute
ENCODING 243
SWIDTH 400 0
DWIDTH 3 0
BBX 5 7 0 1
BITMAP
08
48
48
08
F0
A0
E0
ENDCHAR
STARTCHAR ocircumflex
ENCODING 244
SWIDTH 400 0
DWIDTH 3 0
BBX 5 7 0 1
BITMAP
08
48
A8
08
F0
A0
E0
ENDCHAR
STARTCHAR otilde
ENCODING 245
SWIDTH 400 0
DWIDTH 3 0
BBX 5 7 0 1
BITMAP
08
08
68
08
F0
A0
E0
ENDCHAR
STARTCHAR odieresis
ENCODING 246
SWIDTH 400 0
DWIDTH 3 0
BBX 5 7 0 1
BITMAP
08
08
68
08
F0
A0
E0
ENDCHAR
STARTCHAR divide
ENCODING 247
SWIDTH 592 0
DWIDTH 5 0
BBX 4 4 1 1
BITMAP
40
00
F0
40
ENDCHAR
STARTCHAR oslash
ENCODING 248
SWIDTH 396 0
DWIDTH 3 0
BBX 3 5 0 0
BITMAP
40
E0
A0
C0
80
ENDCHAR
STARTCHAR ugrave
ENCODING 249
SWIDTH 744 0
DWIDTH 6 0
BBX 6 7 0 0
BITMAP
40
40
00
D8
48
4C
30
ENDCHAR
STARTCHAR uacute
ENCODING 250
SWIDTH 744 0
DWIDTH 6 0
BBX 6 7 0 0
BITMAP
20
20
00
D8
48
4C
30
ENDCHAR
STARTCHAR ucircumflex
ENCODING 251
SWIDTH 744 0
DWIDTH 6 0
BBX 6 6 0 0
BITMAP
20
50
D8
48
4C
30
ENDCHAR
STARTCHAR udieresis
ENCODING 252
SWIDTH 744 0
DWIDTH 6 0
BBX 6 6 0 0
BITMAP
30
00
D8
48
4C
30
ENDCHAR
STARTCHAR yacute
ENCODING 253
SWIDTH 659 0
DWIDTH 5 0
BBX 5 10 0 -4
BITMAP
30
20
D8
48
48
38
08
10
70
60
ENDCHAR
STARTCHAR thorn
ENCODING 254
SWIDTH 514 0
DWIDTH 4 0
BBX 4 11 0 -4
BITMAP
C0
80
80
70
50
50
70
40
40
40
E0
ENDCHAR
STARTCHAR ydieresis
ENCODING 255
SWIDTH 659 0
DWIDTH 5 0
BBX 5 10 0 -4
BITMAP
30
20
D8
48
48
38
08
10
70
60
ENDCHAR
STARTCHAR dotlessi
ENCODING 305
SWIDTH 301 0
DWIDTH 2 0
BBX 3 4 0 1
BITMAP
C0
40
40
E0
ENDCHAR
STARTCHAR OE
ENCODING 338
SWIDTH 1132 0
DWIDTH 9 0
BBX 9 9 0 -2
BITMAP
0100
7F00
CC00
8500
8700
C500
7C80
0F80
1000
ENDCHAR
STARTCHAR oe
ENCODING 339
SWIDTH 798 0
DWIDTH 6 0
BBX 6 4 0 1
BITMAP
EC
BC
94
7C
ENDCHAR
STARTCHAR circumflex
ENCODING 710
SWIDTH 483 0
DWIDTH 4 0
BBX 3 2 0 5
BITMAP
20
E0
ENDCHAR
STARTCHAR caron
ENCODING 711
SWIDTH 428 0
DWIDTH 3 0
BBX 3 2 0 6
BITMAP
A0
40
ENDCHAR
STARTCHAR ring
ENCODING 730
SWIDTH 330 0
DWIDTH 3 0
BBX 2 2 0 7
BITMAP
C0
C0
ENDCHAR
STARTCHAR tilde
ENCODING 732
SWIDTH 433 0
DWIDTH 3 0
BBX 3 1 0 6
BITMAP
E0
ENDCHAR
STARTCHAR mu.dup1
ENCODING 956
SWIDTH 634 0
DWIDTH 5 0
BBX 5 7 0 -3
BITMAP
A0
A0
98
F8
80
80
80
ENDCHAR
STARTCHAR endash
ENCODING 8211
SWIDTH 436 0
DWIDTH 3 0
BBX 3 1 0 2
BITMAP
E0
ENDCHAR
STARTCHAR emdash
ENCODING 8212
SWIDTH 651 0
DWIDTH 5 0
BBX 5 1 0 2
BITMAP
F8
ENDCHAR
STARTCHAR quoteleft
ENCODING 8216
SWIDTH 287 0
DWIDTH 2 0
BBX 1 3 0 4
BITMAP
80
80
80
ENDCHAR
STARTCHAR quoteright
ENCODING 8217
SWIDTH 291 0
DWIDTH 2 0
BBX 2 3 0 3
BITMAP
C0
40
80
ENDCHAR
STARTCHAR quotesinglbase
ENCODING 8218
SWIDTH 272 0
DWIDTH 2 0
BBX 1 3 0 -2
BITMAP
80
80
80
ENDCHAR
STARTCHAR quotedblleft
ENCODING 8220
SWIDTH 445 0
DWIDTH 4 0
BBX 3 3 0 4
BITMAP
A0
A0
A0
ENDCHAR
STARTCHAR quotedblright
ENCODING 8221
SWIDTH 444 0
DWIDTH 4 0
BBX 2 3 1 4
BITMAP
C0
C0
80
ENDCHAR
STARTCHAR quotedblbase
ENCODING 8222
SWIDTH 482 0
DWIDTH 4 0
BBX 3 3 0 -2
BITMAP
A0
A0
C0
ENDCHAR
STARTCHAR bullet
ENCODING 8226
SWIDTH 351 0
DWIDTH 3 0
BBX 2 2 0 2
BITMAP
C0
C0
ENDCHAR
STARTCHAR guilsinglleft
ENCODING 8249
SWIDTH 465 0
DWIDTH 4 0
BBX 3 5 0 -1
BITMAP
20
40
C0
20
20
ENDCHAR
STARTCHAR guilsinglright
ENCODING 8250
SWIDTH 449 0
DWIDTH 4 0
BBX 3 5 0 -1
BITMAP
80
60
40
80
80
ENDCHAR
STARTCHAR fraction
ENCODING 8260
SWIDTH 406 0
DWIDTH 3 0
BBX 5 7 -1 0
BITMAP
08
10
20
20
40
80
80
ENDCHAR
STARTCHAR foursuperior
ENCODING 8308
SWIDTH 473 0
DWIDTH 4 0
BBX 4 5 0 2
BITMAP
40
40
A0
60
F0
ENDCHAR
STARTCHAR Euro
ENCODING 8364
SWIDTH 799 0
DWIDTH 6 0
BBX 7 6 0 0
BITMAP
3E
64
50
E0
E4
38
ENDCHAR
STARTCHAR minus
ENCODING 8722
SWIDTH 436 0
DWIDTH 3 0
BBX 3 1 0 2
BITMAP
E0
ENDCHAR
STARTCHAR f_f
ENCODING 64256
SWIDTH 467 0
DWIDTH 4 0
BBX 5 12 0 -3
BITMAP
30
58
78
A0
70
60
60
60
50
60
60
F0
ENDCHAR
STARTCHAR .notdef
ENCODING -1
SWIDTH 270 0
DWIDTH 2 0
BBX 2 5 0 0
BITMAP
C0
C0
C0
C0
C0
ENDCHAR
STARTCHAR .null
ENCODING -1
SWIDTH 0 0
DWIDTH 0 0
BBX 1 1 0 0
BITMAP
00
ENDCHAR
STARTCHAR nonmarkingreturn
ENCODING -1
SWIDTH 270 0
DWIDTH 2 0
BBX 1 1 0 0
BITMAP
00
ENDCHAR
STARTCHAR dieresis.case
ENCODING -1
SWIDTH 393 0
DWIDTH 3 0
BBX 2 1 0 6
BITMAP
C0
ENDCHAR
STARTCHAR o.cmp
ENCODING -1
SWIDTH 400 0
DWIDTH 3 0
BBX 5 7 0 1
BITMAP
08
08
08
08
F0
A0
E0
ENDCHAR
STARTCHAR n_n
ENCODING -1
SWIDTH 1024 0
DWIDTH 8 0
BBX 8 6 1 -1
BITMAP
80
B0
DF
95
FF
10
ENDCHAR
STARTCHAR a_a
ENCODING -1
SWIDTH 911 0
DWIDTH 7 0
BBX 8 6 0 -1
BITMAP
0C
CC
DC
FA
FE
03
ENDCHAR
STARTCHAR t_h
ENCODING -1
SWIDTH 854 0
DWIDTH 7 0
BBX 7 10 0 -1
BITMAP
30
10
50
F0
6C
54
6E
3C
34
0E
ENDCHAR
STARTCHAR s_s
ENCODING -1
SWIDTH 654 0
DWIDTH 5 0
BBX 5 7 0 -1
BITMAP
08
78
68
B0
E8
68
38
ENDCHAR
STARTCHAR t_t
ENCODING -1
SWIDTH 569 0
DWIDTH 5 0
BBX 4 8 0 -1
BITMAP
20
30
E0
60
70
70
40
30
ENDCHAR
STARTCHAR e_e
ENCODING -1
SWIDTH 782 0
DWIDTH 6 0
BBX 6 5 0 0
BITMAP
6C
B4
D4
9C
7C
ENDCHAR
STARTCHAR o_o
ENCODING -1
SWIDTH 751 0
DWIDTH 6 0
BBX 8 8 0 1
BITMAP
01
01
01
01
7E
94
9C
E0
ENDCHAR
STARTCHAR l_l
ENCODING -1
SWIDTH 573 0
DWIDTH 5 0
BBX 5 8 0 -1
BITMAP
F0
50
50
50
50
58
E0
20
ENDCHAR
STARTCHAR z_z
ENCODING -1
SWIDTH 875 0
DWIDTH 7 0
BBX 7 5 0 -1
BITMAP
38
70
50
5E
FE
ENDCHAR
STARTCHAR j_j
ENCODING -1
SWIDTH 577 0
DWIDTH 5 0
BBX 6 12 -1 -5
BITMAP
08
20
18
78
34
14
14
14
D4
A4
F8
18
ENDCHAR
STARTCHAR f_b
ENCODING -1
SWIDTH 731 0
DWIDTH 6 0
BBX 6 10 0 -1
BITMAP
30
50
70
70
D0
50
5C
54
5C
E0
ENDCHAR
STARTCHAR f_k
ENCODING -1
SWIDTH 708 0
DWIDTH 6 0
BBX 6 9 0 -1
BITMAP
20
70
30
60
78
F0
74
EC
70
ENDCHAR
STARTCHAR f_h
ENCODING -1
SWIDTH 873 0
DWIDTH 7 0
BBX 7 10 0 -1
BITMAP
30
50
70
70
50
D0
5C
54
56
F8
ENDCHAR
ENDFONT
